<mxfile host="app.diagrams.net" modified="2022-06-16T01:27:42.998Z" agent="5.0 (Windows NT 10.0; Win64; x64) AppleWebKit/537.36 (KHTML, like Gecko) Chrome/102.0.0.0 Safari/537.36" etag="-U3T0xEeurQjoOobvHBF" version="20.0.1" type="github">
  <diagram id="3YLJr1fztblKQ9VN-629" name="Page-1">
    <mxGraphModel dx="981" dy="606" grid="0" gridSize="10" guides="1" tooltips="1" connect="1" arrows="1" fold="1" page="1" pageScale="1" pageWidth="2339" pageHeight="3300" math="0" shadow="0">
      <root>
        <mxCell id="0" />
        <mxCell id="1" parent="0" />
        <mxCell id="A_bVcTAHWpAkhJM3r6tm-3" value="" style="whiteSpace=wrap;html=1;aspect=fixed;" vertex="1" parent="1">
          <mxGeometry x="320" y="280" width="40" height="40" as="geometry" />
        </mxCell>
        <mxCell id="A_bVcTAHWpAkhJM3r6tm-5" value="" style="whiteSpace=wrap;html=1;aspect=fixed;" vertex="1" parent="1">
          <mxGeometry x="370" y="280" width="40" height="40" as="geometry" />
        </mxCell>
        <mxCell id="A_bVcTAHWpAkhJM3r6tm-6" value="" style="whiteSpace=wrap;html=1;aspect=fixed;" vertex="1" parent="1">
          <mxGeometry x="420" y="280" width="40" height="40" as="geometry" />
        </mxCell>
        <mxCell id="A_bVcTAHWpAkhJM3r6tm-7" value="" style="whiteSpace=wrap;html=1;aspect=fixed;" vertex="1" parent="1">
          <mxGeometry x="470" y="280" width="40" height="40" as="geometry" />
        </mxCell>
        <mxCell id="A_bVcTAHWpAkhJM3r6tm-10" value="&lt;font style=&quot;font-size: 14px;&quot;&gt;&lt;b&gt;&lt;i&gt;E&lt;/i&gt;&lt;/b&gt;&lt;/font&gt;" style="whiteSpace=wrap;html=1;aspect=fixed;fillColor=#d5e8d4;strokeColor=#82b366;" vertex="1" parent="1">
          <mxGeometry x="520" y="280" width="40" height="40" as="geometry" />
        </mxCell>
        <mxCell id="A_bVcTAHWpAkhJM3r6tm-11" value="" style="whiteSpace=wrap;html=1;aspect=fixed;" vertex="1" parent="1">
          <mxGeometry x="570" y="280" width="40" height="40" as="geometry" />
        </mxCell>
        <mxCell id="A_bVcTAHWpAkhJM3r6tm-12" value="" style="whiteSpace=wrap;html=1;aspect=fixed;" vertex="1" parent="1">
          <mxGeometry x="620" y="280" width="40" height="40" as="geometry" />
        </mxCell>
        <mxCell id="A_bVcTAHWpAkhJM3r6tm-13" value="" style="whiteSpace=wrap;html=1;aspect=fixed;" vertex="1" parent="1">
          <mxGeometry x="670" y="280" width="40" height="40" as="geometry" />
        </mxCell>
        <mxCell id="A_bVcTAHWpAkhJM3r6tm-14" value="" style="whiteSpace=wrap;html=1;aspect=fixed;" vertex="1" parent="1">
          <mxGeometry x="320" y="330" width="40" height="40" as="geometry" />
        </mxCell>
        <mxCell id="A_bVcTAHWpAkhJM3r6tm-15" value="" style="whiteSpace=wrap;html=1;aspect=fixed;" vertex="1" parent="1">
          <mxGeometry x="370" y="330" width="40" height="40" as="geometry" />
        </mxCell>
        <mxCell id="A_bVcTAHWpAkhJM3r6tm-17" value="" style="whiteSpace=wrap;html=1;aspect=fixed;" vertex="1" parent="1">
          <mxGeometry x="470" y="330" width="40" height="40" as="geometry" />
        </mxCell>
        <mxCell id="A_bVcTAHWpAkhJM3r6tm-18" value="" style="whiteSpace=wrap;html=1;aspect=fixed;" vertex="1" parent="1">
          <mxGeometry x="520" y="330" width="40" height="40" as="geometry" />
        </mxCell>
        <mxCell id="A_bVcTAHWpAkhJM3r6tm-19" value="" style="whiteSpace=wrap;html=1;aspect=fixed;" vertex="1" parent="1">
          <mxGeometry x="570" y="330" width="40" height="40" as="geometry" />
        </mxCell>
        <mxCell id="A_bVcTAHWpAkhJM3r6tm-20" value="" style="whiteSpace=wrap;html=1;aspect=fixed;" vertex="1" parent="1">
          <mxGeometry x="620" y="330" width="40" height="40" as="geometry" />
        </mxCell>
        <mxCell id="A_bVcTAHWpAkhJM3r6tm-21" value="" style="whiteSpace=wrap;html=1;aspect=fixed;" vertex="1" parent="1">
          <mxGeometry x="670" y="330" width="40" height="40" as="geometry" />
        </mxCell>
        <mxCell id="A_bVcTAHWpAkhJM3r6tm-22" value="" style="whiteSpace=wrap;html=1;aspect=fixed;" vertex="1" parent="1">
          <mxGeometry x="320" y="380" width="40" height="40" as="geometry" />
        </mxCell>
        <mxCell id="A_bVcTAHWpAkhJM3r6tm-23" value="" style="whiteSpace=wrap;html=1;aspect=fixed;" vertex="1" parent="1">
          <mxGeometry x="370" y="380" width="40" height="40" as="geometry" />
        </mxCell>
        <mxCell id="A_bVcTAHWpAkhJM3r6tm-24" value="" style="whiteSpace=wrap;html=1;aspect=fixed;" vertex="1" parent="1">
          <mxGeometry x="420" y="380" width="40" height="40" as="geometry" />
        </mxCell>
        <mxCell id="A_bVcTAHWpAkhJM3r6tm-25" value="&lt;font style=&quot;font-size: 14px;&quot;&gt;&lt;b&gt;&lt;i&gt;S0&lt;/i&gt;&lt;/b&gt;&lt;/font&gt;" style="whiteSpace=wrap;html=1;aspect=fixed;fillColor=#ffe6cc;strokeColor=#d79b00;" vertex="1" parent="1">
          <mxGeometry x="470" y="380" width="40" height="40" as="geometry" />
        </mxCell>
        <mxCell id="A_bVcTAHWpAkhJM3r6tm-26" value="" style="whiteSpace=wrap;html=1;aspect=fixed;" vertex="1" parent="1">
          <mxGeometry x="520" y="380" width="40" height="40" as="geometry" />
        </mxCell>
        <mxCell id="A_bVcTAHWpAkhJM3r6tm-27" value="" style="whiteSpace=wrap;html=1;aspect=fixed;" vertex="1" parent="1">
          <mxGeometry x="570" y="380" width="40" height="40" as="geometry" />
        </mxCell>
        <mxCell id="A_bVcTAHWpAkhJM3r6tm-28" value="&lt;font style=&quot;font-size: 14px;&quot;&gt;&lt;b&gt;&lt;i&gt;O&lt;/i&gt;&lt;/b&gt;&lt;/font&gt;" style="whiteSpace=wrap;html=1;aspect=fixed;fillColor=#f8cecc;strokeColor=#b85450;" vertex="1" parent="1">
          <mxGeometry x="620" y="380" width="40" height="40" as="geometry" />
        </mxCell>
        <mxCell id="A_bVcTAHWpAkhJM3r6tm-29" value="" style="whiteSpace=wrap;html=1;aspect=fixed;" vertex="1" parent="1">
          <mxGeometry x="670" y="380" width="40" height="40" as="geometry" />
        </mxCell>
        <mxCell id="A_bVcTAHWpAkhJM3r6tm-32" value="" style="whiteSpace=wrap;html=1;aspect=fixed;" vertex="1" parent="1">
          <mxGeometry x="420" y="430" width="40" height="40" as="geometry" />
        </mxCell>
        <mxCell id="A_bVcTAHWpAkhJM3r6tm-33" value="" style="whiteSpace=wrap;html=1;aspect=fixed;" vertex="1" parent="1">
          <mxGeometry x="470" y="430" width="40" height="40" as="geometry" />
        </mxCell>
        <mxCell id="A_bVcTAHWpAkhJM3r6tm-35" value="" style="whiteSpace=wrap;html=1;aspect=fixed;" vertex="1" parent="1">
          <mxGeometry x="570" y="430" width="40" height="40" as="geometry" />
        </mxCell>
        <mxCell id="A_bVcTAHWpAkhJM3r6tm-36" value="" style="whiteSpace=wrap;html=1;aspect=fixed;" vertex="1" parent="1">
          <mxGeometry x="620" y="430" width="40" height="40" as="geometry" />
        </mxCell>
        <mxCell id="A_bVcTAHWpAkhJM3r6tm-37" value="" style="whiteSpace=wrap;html=1;aspect=fixed;" vertex="1" parent="1">
          <mxGeometry x="670" y="430" width="40" height="40" as="geometry" />
        </mxCell>
        <mxCell id="A_bVcTAHWpAkhJM3r6tm-38" value="" style="whiteSpace=wrap;html=1;aspect=fixed;" vertex="1" parent="1">
          <mxGeometry x="320" y="480" width="40" height="40" as="geometry" />
        </mxCell>
        <mxCell id="A_bVcTAHWpAkhJM3r6tm-40" value="" style="whiteSpace=wrap;html=1;aspect=fixed;" vertex="1" parent="1">
          <mxGeometry x="420" y="480" width="40" height="40" as="geometry" />
        </mxCell>
        <mxCell id="A_bVcTAHWpAkhJM3r6tm-42" value="" style="whiteSpace=wrap;html=1;aspect=fixed;" vertex="1" parent="1">
          <mxGeometry x="520" y="480" width="40" height="40" as="geometry" />
        </mxCell>
        <mxCell id="A_bVcTAHWpAkhJM3r6tm-43" value="&lt;b style=&quot;font-size: 14px;&quot;&gt;&lt;i&gt;S1&lt;/i&gt;&lt;/b&gt;" style="whiteSpace=wrap;html=1;aspect=fixed;fillColor=#ffe6cc;strokeColor=#d79b00;" vertex="1" parent="1">
          <mxGeometry x="570" y="480" width="40" height="40" as="geometry" />
        </mxCell>
        <mxCell id="A_bVcTAHWpAkhJM3r6tm-44" value="" style="whiteSpace=wrap;html=1;aspect=fixed;" vertex="1" parent="1">
          <mxGeometry x="620" y="480" width="40" height="40" as="geometry" />
        </mxCell>
        <mxCell id="A_bVcTAHWpAkhJM3r6tm-46" value="" style="whiteSpace=wrap;html=1;aspect=fixed;" vertex="1" parent="1">
          <mxGeometry x="320" y="530" width="40" height="40" as="geometry" />
        </mxCell>
        <mxCell id="A_bVcTAHWpAkhJM3r6tm-47" value="" style="whiteSpace=wrap;html=1;aspect=fixed;" vertex="1" parent="1">
          <mxGeometry x="370" y="530" width="40" height="40" as="geometry" />
        </mxCell>
        <mxCell id="A_bVcTAHWpAkhJM3r6tm-51" value="" style="whiteSpace=wrap;html=1;aspect=fixed;" vertex="1" parent="1">
          <mxGeometry x="570" y="530" width="40" height="40" as="geometry" />
        </mxCell>
        <mxCell id="A_bVcTAHWpAkhJM3r6tm-53" value="" style="whiteSpace=wrap;html=1;aspect=fixed;" vertex="1" parent="1">
          <mxGeometry x="670" y="530" width="40" height="40" as="geometry" />
        </mxCell>
        <mxCell id="A_bVcTAHWpAkhJM3r6tm-54" value="" style="whiteSpace=wrap;html=1;aspect=fixed;" vertex="1" parent="1">
          <mxGeometry x="320" y="580" width="40" height="40" as="geometry" />
        </mxCell>
        <mxCell id="A_bVcTAHWpAkhJM3r6tm-55" value="" style="whiteSpace=wrap;html=1;aspect=fixed;" vertex="1" parent="1">
          <mxGeometry x="370" y="580" width="40" height="40" as="geometry" />
        </mxCell>
        <mxCell id="A_bVcTAHWpAkhJM3r6tm-56" value="" style="whiteSpace=wrap;html=1;aspect=fixed;" vertex="1" parent="1">
          <mxGeometry x="420" y="580" width="40" height="40" as="geometry" />
        </mxCell>
        <mxCell id="A_bVcTAHWpAkhJM3r6tm-57" value="" style="whiteSpace=wrap;html=1;aspect=fixed;" vertex="1" parent="1">
          <mxGeometry x="470" y="580" width="40" height="40" as="geometry" />
        </mxCell>
        <mxCell id="A_bVcTAHWpAkhJM3r6tm-58" value="" style="whiteSpace=wrap;html=1;aspect=fixed;" vertex="1" parent="1">
          <mxGeometry x="520" y="580" width="40" height="40" as="geometry" />
        </mxCell>
        <mxCell id="A_bVcTAHWpAkhJM3r6tm-59" value="" style="whiteSpace=wrap;html=1;aspect=fixed;" vertex="1" parent="1">
          <mxGeometry x="570" y="580" width="40" height="40" as="geometry" />
        </mxCell>
        <mxCell id="A_bVcTAHWpAkhJM3r6tm-60" value="" style="whiteSpace=wrap;html=1;aspect=fixed;" vertex="1" parent="1">
          <mxGeometry x="620" y="580" width="40" height="40" as="geometry" />
        </mxCell>
        <mxCell id="A_bVcTAHWpAkhJM3r6tm-61" value="" style="whiteSpace=wrap;html=1;aspect=fixed;" vertex="1" parent="1">
          <mxGeometry x="670" y="580" width="40" height="40" as="geometry" />
        </mxCell>
        <mxCell id="A_bVcTAHWpAkhJM3r6tm-62" value="" style="whiteSpace=wrap;html=1;aspect=fixed;" vertex="1" parent="1">
          <mxGeometry x="320" y="630" width="40" height="40" as="geometry" />
        </mxCell>
        <mxCell id="A_bVcTAHWpAkhJM3r6tm-63" value="" style="whiteSpace=wrap;html=1;aspect=fixed;" vertex="1" parent="1">
          <mxGeometry x="370" y="630" width="40" height="40" as="geometry" />
        </mxCell>
        <mxCell id="A_bVcTAHWpAkhJM3r6tm-65" value="" style="whiteSpace=wrap;html=1;aspect=fixed;" vertex="1" parent="1">
          <mxGeometry x="470" y="630" width="40" height="40" as="geometry" />
        </mxCell>
        <mxCell id="A_bVcTAHWpAkhJM3r6tm-66" value="" style="whiteSpace=wrap;html=1;aspect=fixed;" vertex="1" parent="1">
          <mxGeometry x="520" y="630" width="40" height="40" as="geometry" />
        </mxCell>
        <mxCell id="A_bVcTAHWpAkhJM3r6tm-67" value="" style="whiteSpace=wrap;html=1;aspect=fixed;" vertex="1" parent="1">
          <mxGeometry x="570" y="630" width="40" height="40" as="geometry" />
        </mxCell>
        <mxCell id="A_bVcTAHWpAkhJM3r6tm-68" value="" style="whiteSpace=wrap;html=1;aspect=fixed;" vertex="1" parent="1">
          <mxGeometry x="620" y="630" width="40" height="40" as="geometry" />
        </mxCell>
        <mxCell id="A_bVcTAHWpAkhJM3r6tm-69" value="" style="whiteSpace=wrap;html=1;aspect=fixed;" vertex="1" parent="1">
          <mxGeometry x="670" y="630" width="40" height="40" as="geometry" />
        </mxCell>
        <mxCell id="A_bVcTAHWpAkhJM3r6tm-70" value="&lt;font style=&quot;font-size: 14px;&quot;&gt;&lt;b&gt;&lt;i&gt;E&lt;/i&gt;&lt;/b&gt;&lt;/font&gt;" style="whiteSpace=wrap;html=1;aspect=fixed;fillColor=#d5e8d4;strokeColor=#82b366;" vertex="1" parent="1">
          <mxGeometry x="325" y="210" width="40" height="40" as="geometry" />
        </mxCell>
        <mxCell id="A_bVcTAHWpAkhJM3r6tm-71" value="&lt;b&gt;&lt;i&gt;&lt;font style=&quot;font-size: 12px;&quot;&gt;伊甸园区&lt;/font&gt;&lt;/i&gt;&lt;/b&gt;" style="text;html=1;align=center;verticalAlign=middle;resizable=0;points=[];autosize=1;strokeColor=none;fillColor=none;fontSize=14;" vertex="1" parent="1">
          <mxGeometry x="315" y="190" width="60" height="20" as="geometry" />
        </mxCell>
        <mxCell id="A_bVcTAHWpAkhJM3r6tm-72" value="&lt;font style=&quot;font-size: 14px;&quot;&gt;&lt;b&gt;&lt;i&gt;S0&lt;/i&gt;&lt;/b&gt;&lt;/font&gt;" style="whiteSpace=wrap;html=1;aspect=fixed;fillColor=#ffe6cc;strokeColor=#d79b00;" vertex="1" parent="1">
          <mxGeometry x="390" y="210" width="40" height="40" as="geometry" />
        </mxCell>
        <mxCell id="A_bVcTAHWpAkhJM3r6tm-73" value="&lt;b&gt;&lt;i&gt;&lt;font style=&quot;font-size: 12px;&quot;&gt;幸存者0区&lt;/font&gt;&lt;/i&gt;&lt;/b&gt;" style="text;html=1;align=center;verticalAlign=middle;resizable=0;points=[];autosize=1;strokeColor=none;fillColor=none;fontSize=14;" vertex="1" parent="1">
          <mxGeometry x="375" y="190" width="70" height="20" as="geometry" />
        </mxCell>
        <mxCell id="A_bVcTAHWpAkhJM3r6tm-74" value="&lt;font style=&quot;font-size: 14px;&quot;&gt;&lt;b&gt;&lt;i&gt;S1&lt;/i&gt;&lt;/b&gt;&lt;/font&gt;" style="whiteSpace=wrap;html=1;aspect=fixed;fillColor=#ffe6cc;strokeColor=#d79b00;" vertex="1" parent="1">
          <mxGeometry x="460" y="210" width="40" height="40" as="geometry" />
        </mxCell>
        <mxCell id="A_bVcTAHWpAkhJM3r6tm-75" value="&lt;b&gt;&lt;i&gt;&lt;font style=&quot;font-size: 12px;&quot;&gt;幸存者2区&lt;/font&gt;&lt;/i&gt;&lt;/b&gt;" style="text;html=1;align=center;verticalAlign=middle;resizable=0;points=[];autosize=1;strokeColor=none;fillColor=none;fontSize=14;" vertex="1" parent="1">
          <mxGeometry x="450" y="190" width="70" height="20" as="geometry" />
        </mxCell>
        <mxCell id="A_bVcTAHWpAkhJM3r6tm-76" value="&lt;b style=&quot;&quot;&gt;&lt;i&gt;&lt;font style=&quot;font-size: 14px;&quot;&gt;H&lt;/font&gt;&lt;/i&gt;&lt;/b&gt;" style="rounded=0;whiteSpace=wrap;html=1;fontSize=12;fillColor=#dae8fc;strokeColor=#6c8ebf;" vertex="1" parent="1">
          <mxGeometry x="420" y="530" width="140" height="40" as="geometry" />
        </mxCell>
        <mxCell id="A_bVcTAHWpAkhJM3r6tm-77" value="&lt;font style=&quot;font-size: 14px;&quot;&gt;&lt;b&gt;&lt;i&gt;O&lt;/i&gt;&lt;/b&gt;&lt;/font&gt;" style="whiteSpace=wrap;html=1;aspect=fixed;fillColor=#f8cecc;strokeColor=#b85450;" vertex="1" parent="1">
          <mxGeometry x="525" y="210" width="40" height="40" as="geometry" />
        </mxCell>
        <mxCell id="A_bVcTAHWpAkhJM3r6tm-78" value="&lt;span style=&quot;font-size: 12px;&quot;&gt;&lt;b&gt;&lt;i&gt;老年代&lt;/i&gt;&lt;/b&gt;&lt;/span&gt;" style="text;html=1;align=center;verticalAlign=middle;resizable=0;points=[];autosize=1;strokeColor=none;fillColor=none;fontSize=14;" vertex="1" parent="1">
          <mxGeometry x="520" y="190" width="50" height="20" as="geometry" />
        </mxCell>
        <mxCell id="A_bVcTAHWpAkhJM3r6tm-80" value="&lt;b&gt;&lt;i&gt;&lt;font style=&quot;font-size: 14px;&quot;&gt;H&lt;/font&gt;&lt;/i&gt;&lt;/b&gt;" style="rounded=0;whiteSpace=wrap;html=1;fontSize=12;fillColor=#dae8fc;strokeColor=#6c8ebf;" vertex="1" parent="1">
          <mxGeometry x="590" y="210" width="110" height="40" as="geometry" />
        </mxCell>
        <mxCell id="A_bVcTAHWpAkhJM3r6tm-81" value="&lt;span style=&quot;font-size: 12px;&quot;&gt;&lt;b&gt;&lt;i&gt;巨型对象&lt;/i&gt;&lt;/b&gt;&lt;/span&gt;" style="text;html=1;align=center;verticalAlign=middle;resizable=0;points=[];autosize=1;strokeColor=none;fillColor=none;fontSize=14;" vertex="1" parent="1">
          <mxGeometry x="610" y="190" width="60" height="20" as="geometry" />
        </mxCell>
        <mxCell id="A_bVcTAHWpAkhJM3r6tm-82" value="&lt;b&gt;&lt;i&gt;H&lt;/i&gt;&lt;/b&gt;" style="rounded=0;whiteSpace=wrap;html=1;fontSize=14;fillColor=#dae8fc;strokeColor=#6c8ebf;" vertex="1" parent="1">
          <mxGeometry x="320" y="430" width="90" height="40" as="geometry" />
        </mxCell>
        <mxCell id="A_bVcTAHWpAkhJM3r6tm-83" value="&lt;font style=&quot;font-size: 14px;&quot;&gt;&lt;b&gt;&lt;i&gt;E&lt;/i&gt;&lt;/b&gt;&lt;/font&gt;" style="whiteSpace=wrap;html=1;aspect=fixed;fillColor=#d5e8d4;strokeColor=#82b366;" vertex="1" parent="1">
          <mxGeometry x="420" y="330" width="40" height="40" as="geometry" />
        </mxCell>
        <mxCell id="A_bVcTAHWpAkhJM3r6tm-84" value="&lt;font style=&quot;font-size: 14px;&quot;&gt;&lt;b&gt;&lt;i&gt;E&lt;/i&gt;&lt;/b&gt;&lt;/font&gt;" style="whiteSpace=wrap;html=1;aspect=fixed;fillColor=#d5e8d4;strokeColor=#82b366;" vertex="1" parent="1">
          <mxGeometry x="420" y="630" width="40" height="40" as="geometry" />
        </mxCell>
        <mxCell id="A_bVcTAHWpAkhJM3r6tm-85" value="&lt;font style=&quot;font-size: 14px;&quot;&gt;&lt;b&gt;&lt;i&gt;E&lt;/i&gt;&lt;/b&gt;&lt;/font&gt;" style="whiteSpace=wrap;html=1;aspect=fixed;fillColor=#d5e8d4;strokeColor=#82b366;" vertex="1" parent="1">
          <mxGeometry x="370" y="480" width="40" height="40" as="geometry" />
        </mxCell>
        <mxCell id="A_bVcTAHWpAkhJM3r6tm-86" value="&lt;font style=&quot;font-size: 14px;&quot;&gt;&lt;b&gt;&lt;i&gt;E&lt;/i&gt;&lt;/b&gt;&lt;/font&gt;" style="whiteSpace=wrap;html=1;aspect=fixed;fillColor=#d5e8d4;strokeColor=#82b366;" vertex="1" parent="1">
          <mxGeometry x="620" y="530" width="40" height="40" as="geometry" />
        </mxCell>
        <mxCell id="A_bVcTAHWpAkhJM3r6tm-87" value="&lt;font style=&quot;font-size: 14px;&quot;&gt;&lt;b&gt;&lt;i&gt;O&lt;/i&gt;&lt;/b&gt;&lt;/font&gt;" style="whiteSpace=wrap;html=1;aspect=fixed;fillColor=#f8cecc;strokeColor=#b85450;" vertex="1" parent="1">
          <mxGeometry x="520" y="430" width="40" height="40" as="geometry" />
        </mxCell>
        <mxCell id="A_bVcTAHWpAkhJM3r6tm-88" value="&lt;font style=&quot;font-size: 14px;&quot;&gt;&lt;b&gt;&lt;i&gt;O&lt;/i&gt;&lt;/b&gt;&lt;/font&gt;" style="whiteSpace=wrap;html=1;aspect=fixed;fillColor=#f8cecc;strokeColor=#b85450;" vertex="1" parent="1">
          <mxGeometry x="670" y="480" width="40" height="40" as="geometry" />
        </mxCell>
        <mxCell id="A_bVcTAHWpAkhJM3r6tm-89" value="&lt;font style=&quot;font-size: 14px;&quot;&gt;&lt;b&gt;&lt;i&gt;O&lt;/i&gt;&lt;/b&gt;&lt;/font&gt;" style="whiteSpace=wrap;html=1;aspect=fixed;fillColor=#f8cecc;strokeColor=#b85450;" vertex="1" parent="1">
          <mxGeometry x="470" y="480" width="40" height="40" as="geometry" />
        </mxCell>
      </root>
    </mxGraphModel>
  </diagram>
</mxfile>
